# xmcd
#
# Track frame offsets: 
#        150
#        17682
#        36469
#        55137
#        66873
#        81511
#        100451
#        120212
#        137684
#        145666
#        167761
#        187386
#        202536
#
# Disc length: 3471 seconds
#
# Revision: 0
# Processed by: cddbd v1.5.2PL0 Copyright (c) Steve Scherf et al.
# Submitted via: ExactAudioCopyFreeDBPlugin 1.0
#
DISCID=b50d8d0d
DTITLE=ClickClickDecker - Ich glaub dir gar nichts und irgendwie doch 
DTITLE=alles
DYEAR=2014
DGENRE=Blues
TTITLE0=Tierpark Neumünster
TTITLE1=Und darüber nachdenken nicht nötig
TTITLE2=Die Nutzlosen (unentbehrlich)
TTITLE3=Ausbalancieren
TTITLE4=Schaumburgen und Ellipsen
TTITLE5=Durch die Kastanienanlagen
TTITLE6=Niemand wird's gewesen sein
TTITLE7=Erledigungsblockaden
TTITLE8=Myoklonien
TTITLE9=Was kommt wenn nichts kommen will
TTITLE10=Im Wahljahr
TTITLE11=Bücher deine Kissen
TTITLE12=Dabei so kurz davor
EXTD=
EXTT0=
EXTT1=
EXTT2=
EXTT3=
EXTT4=
EXTT5=
EXTT6=
EXTT7=
EXTT8=
EXTT9=
EXTT10=
EXTT11=
EXTT12=
PLAYORDER=
